<?xml version="1.0" encoding="UTF-8" standalone="no"?>
<!-- Created with Inkscape (http://www.inkscape.org/) -->

<svg
   width="57.60006mm"
   height="57.542957mm"
   viewBox="0 0 57.600059 57.542956"
   version="1.1"
   id="svg17439"
   inkscape:version="1.3.2 (091e20e, 2023-11-25, custom)"
   sodipodi:docname="Predicer_logo.svg"
   xml:space="preserve"
   xmlns:inkscape="http://www.inkscape.org/namespaces/inkscape"
   xmlns:sodipodi="http://sodipodi.sourceforge.net/DTD/sodipodi-0.dtd"
   xmlns="http://www.w3.org/2000/svg"
   xmlns:svg="http://www.w3.org/2000/svg"><sodipodi:namedview
     id="namedview17441"
     pagecolor="#ffffff"
     bordercolor="#000000"
     borderopacity="0.25"
     inkscape:showpageshadow="2"
     inkscape:pageopacity="0.0"
     inkscape:pagecheckerboard="0"
     inkscape:deskcolor="#d1d1d1"
     inkscape:document-units="mm"
     showgrid="false"
     inkscape:zoom="3.0752246"
     inkscape:cx="112.02434"
     inkscape:cy="195.59547"
     inkscape:window-width="2560"
     inkscape:window-height="1377"
     inkscape:window-x="3832"
     inkscape:window-y="-8"
     inkscape:window-maximized="1"
     inkscape:current-layer="layer2" /><defs
     id="defs17436" /><g
     inkscape:label="V1"
     inkscape:groupmode="layer"
     id="layer1"
     transform="translate(-84.686147,-53.94849)"
     style="display:none"><path
       style="fill:#171949;fill-opacity:1;stroke-width:0.264999"
       d="m 103.24107,65.643557 h 14.90516 l 5.41453,6.266251 -5.35369,6.266254 h -14.84433 l 5.04951,-6.144577 z"
       id="path17580" /><path
       style="fill:#a6d06a;fill-opacity:1;stroke-width:0.264999"
       d="m 111.94081,80.366209 h -9.91649 l -5.41453,6.266251 5.35369,6.266254 h 9.85566 l -5.04951,-6.144577 z"
       id="path17580-9"
       sodipodi:nodetypes="ccccccc" /><text
       xml:space="preserve"
       style="font-style:normal;font-variant:normal;font-weight:normal;font-stretch:normal;font-size:12px;line-height:normal;font-family:sans-serif;font-variant-ligatures:normal;font-variant-position:normal;font-variant-caps:normal;font-variant-numeric:normal;font-variant-alternates:normal;font-variant-east-asian:normal;font-feature-settings:normal;font-variation-settings:normal;text-indent:0;text-align:start;text-decoration-line:none;text-decoration-style:solid;text-decoration-color:#000000;letter-spacing:normal;word-spacing:normal;text-transform:none;writing-mode:lr-tb;direction:ltr;text-orientation:mixed;dominant-baseline:auto;baseline-shift:baseline;text-anchor:start;white-space:normal;shape-padding:0;shape-margin:0;inline-size:0;opacity:1;vector-effect:none;fill:#171949;fill-opacity:1;stroke:none;stroke-width:1.00157;stroke-linecap:butt;stroke-linejoin:miter;stroke-miterlimit:4;stroke-dasharray:none;stroke-dashoffset:0;stroke-opacity:1;-inkscape-stroke:none;stop-color:#000000;stop-opacity:1"
       x="305.12592"
       y="386.06363"
       id="text19625"
       transform="matrix(0.85355841,0,0,0.85355841,-173.85765,-221.21568)"><tspan
         sodipodi:role="line"
         id="tspan19623"
         x="305.12592"
         y="386.06363"
         style="font-weight:bold;fill:#171949;fill-opacity:1">Predicer</tspan></text></g><g
     inkscape:groupmode="layer"
     id="layer2"
     inkscape:label="V2"
     transform="translate(2.8492446,11.695067)"
     style="display:inline"><circle
       style="display:inline;fill:#fffffb;stroke:none;stroke-width:0.354468;stroke-linecap:round;stroke-linejoin:round;paint-order:markers fill stroke"
       id="path2"
       cx="26.016193"
       cy="17.084333"
       r="24.463314" /><g
       id="g1"
       style="display:inline"><rect
         style="fill:#194c7f;fill-opacity:1;stroke:none;stroke-width:0.028395;stroke-linejoin:round;stroke-opacity:1"
         id="rect2-3"
         width="11.043983"
         height="22.231842"
         x="37.777477"
         y="-6.4947686"
         transform="rotate(44.717422)" /><rect
         style="fill:#194c7f;fill-opacity:1;stroke:none;stroke-width:0.027876;stroke-linejoin:round;stroke-opacity:1"
         id="rect2-7"
         width="11.005845"
         height="20.472738"
         x="24.661428"
         y="0.58806765"
         transform="rotate(44.717422)" /><rect
         style="fill:#194c7f;fill-opacity:1;stroke:none;stroke-width:0.027876;stroke-linejoin:round;stroke-opacity:1"
         id="rect2"
         width="10.903938"
         height="22.631989"
         x="11.789582"
         y="-6.6760774"
         transform="rotate(44.717422)" /><path
         id="path1"
         style="fill:#9bf082;fill-opacity:1;stroke:none;stroke-width:0.0323881;stroke-linejoin:round"
         d="M 25.979321,-11.695067 A 28.771498,28.771498 0 0 0 -2.7921901,17.076442 28.771498,28.771498 0 0 0 25.979321,45.84789 28.771498,28.771498 0 0 0 54.750816,17.076442 28.771498,28.771498 0 0 0 25.979321,-11.695067 Z m 0,3.2159884 A 25.555499,25.555499 0 0 1 51.534836,17.076442 25.555499,25.555499 0 0 1 25.979321,42.631898 25.555499,25.555499 0 0 1 0.42379393,17.076442 25.555499,25.555499 0 0 1 25.979321,-8.4790786 Z" /><path
         id="path1-4"
         style="fill:#194c7f;fill-opacity:1;stroke:none;stroke-width:0.0290284;stroke-linejoin:round;stroke-opacity:1"
         d="M 25.979321,-8.7104316 A 25.786865,25.786865 0 0 0 0.19245093,17.076437 25.786865,25.786865 0 0 0 25.979321,42.863255 25.786865,25.786865 0 0 0 51.766176,17.076437 25.786865,25.786865 0 0 0 25.979321,-8.7104316 Z m 0,2.8823726 A 22.904479,22.904479 0 0 1 48.883796,17.076437 22.904479,22.904479 0 0 1 25.979321,39.980878 22.904479,22.904479 0 0 1 3.0748219,17.076437 22.904479,22.904479 0 0 1 25.979321,-5.828059 Z" /><path
         style="fill:#9bf082;fill-opacity:1;stroke:none;stroke-width:0.027876;stroke-linejoin:round;stroke-opacity:1"
         d="m 14.444095,2.0796494 8.906246,9.4043236 -4.950264,4.954517 7.971904,7.868258 5.27119,-5.092076 8.945185,9.012541 0.034,-26.2333577 z"
         id="path3"
         sodipodi:nodetypes="cccccccc" /></g></g></svg>
